<?xml version="1.0" encoding="utf-8"?>
<!-- Generator: Adobe Illustrator 19.0.1, SVG Export Plug-In . SVG Version: 6.00 Build 0)  -->
<svg version="1.1" id="Layer_1" xmlns="http://www.w3.org/2000/svg" xmlns:xlink="http://www.w3.org/1999/xlink" x="0px" y="0px"
	 viewBox="0 0 86.1 87" style="enable-background:new 0 0 86.1 87;" xml:space="preserve">
<style type="text/css">
	.st0{fill-rule:evenodd;clip-rule:evenodd;fill:#FFFDE8;}
	.st1{fill:#189BA3;}
	.st2{fill:#4F3A4B;}
	.st3{fill:#E75152;}
	.st4{fill:#FFFDE8;}
	.st5{fill:none;stroke:#189BA3;stroke-width:2;stroke-miterlimit:10;}
	.st6{fill:none;stroke:#189BA3;stroke-width:3;stroke-miterlimit:10;}
	.st7{fill:none;stroke:#189BA3;stroke-width:4;stroke-miterlimit:10;}
	.st8{opacity:0.5;fill-rule:evenodd;clip-rule:evenodd;fill:#189BA3;}
	.st9{opacity:0.5;}
	.st10{fill-rule:evenodd;clip-rule:evenodd;fill:#189BA3;}
	.st11{fill:none;stroke:#FFFDE8;stroke-width:4;stroke-miterlimit:10;}
	.st12{fill-rule:evenodd;clip-rule:evenodd;fill:#025E68;}
	.st13{fill:#025E68;}
	.st14{clip-path:url(#SVGID_2_);}
	.st15{fill-rule:evenodd;clip-rule:evenodd;fill:#2F3938;}
	.st16{fill:#01FEAE;}
	.st17{fill:#FEFEFE;}
	.st18{fill-rule:evenodd;clip-rule:evenodd;fill:#26CF92;}
	.st19{fill:#D2BEB7;}
	.st20{fill:#2F3938;}
	.st21{fill:#26CF92;}
	.st22{fill:none;stroke:#2F3938;stroke-width:2;stroke-miterlimit:10;}
	.st23{fill-rule:evenodd;clip-rule:evenodd;fill:#D7D3D3;}
	.st24{fill-rule:evenodd;clip-rule:evenodd;fill:#D7D3D3;stroke:#01FEAE;stroke-width:14;stroke-miterlimit:10;}
	.st25{fill-rule:evenodd;clip-rule:evenodd;fill:#FEFEFE;}
	.st26{fill-rule:evenodd;clip-rule:evenodd;fill:#01FEAE;}
	.st27{fill-rule:evenodd;clip-rule:evenodd;fill:#998675;}
	.st28{fill-rule:evenodd;clip-rule:evenodd;fill:none;stroke:#D7D3D3;stroke-width:14;stroke-miterlimit:10;}
	.st29{fill-rule:evenodd;clip-rule:evenodd;fill:none;stroke:#26CF92;stroke-width:6;stroke-miterlimit:10;}
	.st30{fill-rule:evenodd;clip-rule:evenodd;fill:none;stroke:#26CF92;stroke-width:3;stroke-miterlimit:10;}
	.st31{fill-rule:evenodd;clip-rule:evenodd;fill:#FF1D25;}
	.st32{fill-rule:evenodd;clip-rule:evenodd;fill:none;stroke:#2F3938;stroke-width:3;stroke-miterlimit:10;}
	.st33{fill-rule:evenodd;clip-rule:evenodd;fill:#75A087;}
	.st34{fill:#FEFEFE;stroke:#2F3938;stroke-width:6;stroke-miterlimit:10;}
	.st35{fill-rule:evenodd;clip-rule:evenodd;fill:none;stroke:#2F3938;stroke-width:6;stroke-miterlimit:10;}
	.st36{fill-rule:evenodd;clip-rule:evenodd;fill:#FEFEFE;stroke:#2F3938;stroke-width:6;stroke-miterlimit:10;}
</style>
<g>
	<g>
		<g>
			<path class="st19" d="M69.3,54.4c0,0.5-0.4,0.9-0.9,0.9H18.3c-0.5,0-0.9-0.4-0.9-0.9V41.2c0-0.5,0.4-0.9,0.9-0.9h50.2
				c0.5,0,0.9,0.4,0.9,0.9V54.4z M19.3,53.3h48v-11h-48V53.3z"/>
		</g>
		<g>
			<rect x="23.3" y="46.3" class="st19" width="40" height="3"/>
		</g>
		<path class="st19" d="M69.3,37.9c1,0.1,1.4,0.1,2,0c0,0-1-0.6-2.1-1.6c-0.5-11.9-9.1-21.7-20.3-24.2c0-0.5,0-1-0.1-1.4
			c0,0-0.4,0.5-0.9,1.3c-0.4-0.1-0.8-0.1-1.3-0.2c-0.8-0.9-1.3-1.7-1.3-1.7c-0.1,0.5-0.1,1-0.1,1.5c-0.6,0-1.3-0.1-1.9-0.1
			c-9.8,0-18.3,5.4-22.7,13.4c-1,0.1-1.6,0.1-1.6,0.1c0.3,0.3,0.7,0.6,1.1,0.8c0,0,0,0.1-0.1,0.1c-1.7,0.2-2.9,0.3-2.9,0.3
			c0.6,0.5,1.3,1,2.2,1.4c-2.2,0.4-4,0.4-4,0.4c0.8,0.8,2,1.4,3.2,1.8c0,0.1,0,0.1,0,0.2c-2,1.1-3.8,1.7-3.8,1.7
			c0.9,0.4,2,0.7,3.1,0.8c-0.3,1.6-0.5,3.2-0.5,4.8v28.3L43.2,77l26.1-11.2V39.2c0,0,1,0,1.4-0.1c0,0-0.4-0.4-1.4-1.1V37.9z
			 M25.3,65.6V55.3l-5-0.6V42l5-0.6v-9.3c0-0.2,1.1-0.3,1.1-0.3l-0.1,0c10.5-2.4,22.1-13.9,22.1-13.9c-0.7,8.7,9.9,16.7,13.9,18.8
			v4.1l4,0.6v13.2l-4,0.6v10.3l-18.6,8L25.3,65.6z"/>
	</g>
</g>
</svg>
