<?xml version="1.0" encoding="utf-8"?>
<!-- Generator: Adobe Illustrator 19.0.1, SVG Export Plug-In . SVG Version: 6.00 Build 0)  -->
<svg version="1.1" id="Layer_1" xmlns="http://www.w3.org/2000/svg" xmlns:xlink="http://www.w3.org/1999/xlink" x="0px" y="0px"
	 viewBox="0 0 392 157.7" style="enable-background:new 0 0 392 157.7;" xml:space="preserve">
<style type="text/css">
	.st0{fill-rule:evenodd;clip-rule:evenodd;fill:#FFFDE8;}
	.st1{fill:#189BA3;}
	.st2{fill:#4F3A4B;}
	.st3{fill:#E75152;}
	.st4{fill:#FFFDE8;}
	.st5{fill:none;stroke:#189BA3;stroke-width:2;stroke-miterlimit:10;}
	.st6{fill:none;stroke:#189BA3;stroke-width:3;stroke-miterlimit:10;}
	.st7{fill:none;stroke:#189BA3;stroke-width:4;stroke-miterlimit:10;}
	.st8{opacity:0.5;fill-rule:evenodd;clip-rule:evenodd;fill:#189BA3;}
	.st9{opacity:0.5;}
	.st10{fill-rule:evenodd;clip-rule:evenodd;fill:#189BA3;}
	.st11{fill:none;stroke:#FFFDE8;stroke-width:4;stroke-miterlimit:10;}
	.st12{fill-rule:evenodd;clip-rule:evenodd;fill:#025E68;}
	.st13{fill:#025E68;}
	.st14{clip-path:url(#SVGID_2_);}
	.st15{fill-rule:evenodd;clip-rule:evenodd;fill:#2F3938;}
	.st16{fill:#01FEAE;}
	.st17{fill:#FEFEFE;}
	.st18{fill-rule:evenodd;clip-rule:evenodd;fill:#26CF92;}
	.st19{fill:#D2BEB7;}
	.st20{fill:#2F3938;}
	.st21{fill:#26CF92;}
	.st22{fill:none;stroke:#2F3938;stroke-width:2;stroke-miterlimit:10;}
	.st23{fill-rule:evenodd;clip-rule:evenodd;fill:#D7D3D3;}
	.st24{fill-rule:evenodd;clip-rule:evenodd;fill:#D7D3D3;stroke:#01FEAE;stroke-width:14;stroke-miterlimit:10;}
	.st25{fill-rule:evenodd;clip-rule:evenodd;fill:#FEFEFE;}
	.st26{fill-rule:evenodd;clip-rule:evenodd;fill:#01FEAE;}
	.st27{fill-rule:evenodd;clip-rule:evenodd;fill:#998675;}
	.st28{fill-rule:evenodd;clip-rule:evenodd;fill:none;stroke:#D7D3D3;stroke-width:14;stroke-miterlimit:10;}
	.st29{fill-rule:evenodd;clip-rule:evenodd;fill:none;stroke:#26CF92;stroke-width:6;stroke-miterlimit:10;}
	.st30{fill-rule:evenodd;clip-rule:evenodd;fill:none;stroke:#26CF92;stroke-width:3;stroke-miterlimit:10;}
	.st31{fill-rule:evenodd;clip-rule:evenodd;fill:#FF1D25;}
	.st32{fill-rule:evenodd;clip-rule:evenodd;fill:none;stroke:#2F3938;stroke-width:3;stroke-miterlimit:10;}
	.st33{fill-rule:evenodd;clip-rule:evenodd;fill:#75A087;}
	.st34{fill:#FEFEFE;stroke:#2F3938;stroke-width:6;stroke-miterlimit:10;}
	.st35{fill-rule:evenodd;clip-rule:evenodd;fill:none;stroke:#2F3938;stroke-width:6;stroke-miterlimit:10;}
	.st36{fill-rule:evenodd;clip-rule:evenodd;fill:#FEFEFE;stroke:#2F3938;stroke-width:6;stroke-miterlimit:10;}
</style>
<g>
	<g>
		<g>
			<path class="st20" d="M0.5,10.2h71.9v21.7H26.2v26.4h39.5V80H26.2v44.3H0.5V10.2z"/>
			<path class="st20" d="M73.1,80.9c0-28.9,20.3-45.5,42.3-45.5c21.9,0,42.2,16.6,42.2,45.5c0,28.9-20.3,45.5-42.2,45.5
				C93.4,126.4,73.1,109.8,73.1,80.9z M131.4,80.9c0-15.1-5.4-24.7-15.9-24.7c-10.7,0-15.9,9.6-15.9,24.7c0,15,5.2,24.7,15.9,24.7
				C126,105.6,131.4,96,131.4,80.9z"/>
			<path class="st20" d="M161.5,80.9c0-28.9,21.2-45.5,45.2-45.5c10.7,0,18.9,3.8,25.4,9.3L220,61.3c-4.2-3.5-7.7-5.1-11.7-5.1
				c-12.4,0-20.3,9.6-20.3,24.7c0,15,8.2,24.7,19.4,24.7c5.6,0,11-2.8,15.6-6.3l10.2,16.8c-8.6,7.5-19.2,10.3-28.7,10.3
				C180.2,126.4,161.5,109.8,161.5,80.9z"/>
			<path class="st20" d="M238.7,91.4V37.5h25.7v50.6c0,12.4,3.3,16.5,10.8,16.5c6.5,0,10.3-2.8,15.4-9.6V37.5h25.7v86.8h-21
				l-1.9-12.1h-0.5c-7.3,8.8-15.4,14.2-27.3,14.2C246.7,126.4,238.7,113.1,238.7,91.4z"/>
			<path class="st20" d="M322.5,114.3L334,98.2c7.9,6,15,9.1,22.4,9.1c7.7,0,11-2.8,11-7.3c0-5.8-8.8-8.4-17.7-11.9
				c-10.5-4-22.9-11.2-22.9-25.6c0-16.1,13.1-27.1,33.2-27.1c13.3,0,23.1,5.4,30.6,11l-11.5,15.4c-6.3-4.5-12.2-7.3-18.4-7.3
				c-6.7,0-9.8,2.5-9.8,6.8c0,5.6,8.1,7.7,17,11c11,4,23.5,10.1,23.5,26.1c0,15.8-12.4,28-35.7,28
				C344.4,126.4,331.2,121.5,322.5,114.3z"/>
		</g>
		<g>
			<path class="st20" d="M87.4,2.1h4.7V19h8.3v4h-13V2.1z"/>
			<path class="st20" d="M102.2,15c0-5.2,3.7-8.3,7.5-8.3c4.5,0,6.8,3.3,6.8,7.6c0,0.8-0.1,1.7-0.2,2.1h-9.5c0.4,2.3,2,3.4,4.1,3.4
				c1.2,0,2.3-0.4,3.4-1.1l1.6,2.8c-1.6,1.1-3.7,1.8-5.6,1.8C105.7,23.3,102.2,20.2,102.2,15z M112.4,13.3c0-1.8-0.8-3-2.7-3
				c-1.5,0-2.8,1-3.1,3H112.4z"/>
			<path class="st20" d="M120,17.2v-6.4h-2.2V7.3l2.4-0.2l0.5-4.2h3.9v4.2h3.8v3.7h-3.8v6.4c0,1.8,0.8,2.5,2,2.5
				c0.5,0,1.1-0.2,1.5-0.3l0.7,3.4c-0.8,0.3-2,0.6-3.5,0.6C121.6,23.3,120,20.9,120,17.2z"/>
			<path class="st20" d="M131.8,9.6c1.9-1,2.9-2.1,2.9-4.1c-0.1,0-0.2,0-0.3,0c-1.4,0-2.5-0.9-2.5-2.3c0-1.6,1-2.6,2.5-2.6
				c2,0,3,1.5,3,4.2c0,3-1.5,5.3-4.6,6.8L131.8,9.6z"/>
			<path class="st20" d="M138.7,21.1l2.1-2.9c1.4,1.1,2.8,1.7,4.1,1.7c1.4,0,2-0.5,2-1.3c0-1.1-1.6-1.5-3.2-2.2
				c-1.9-0.7-4.2-2-4.2-4.7c0-2.9,2.4-5,6.1-5c2.4,0,4.2,1,5.6,2l-2.1,2.8c-1.2-0.8-2.2-1.3-3.4-1.3c-1.2,0-1.8,0.4-1.8,1.2
				c0,1,1.5,1.4,3.1,2c2,0.7,4.3,1.9,4.3,4.8c0,2.9-2.3,5.1-6.5,5.1C142.7,23.3,140.3,22.4,138.7,21.1z"/>
			<path class="st20" d="M161.3,17.2v-6.4h-2.2V7.3l2.4-0.2l0.5-4.2h3.9v4.2h3.8v3.7H166v6.4c0,1.8,0.8,2.5,2,2.5
				c0.5,0,1.1-0.2,1.5-0.3l0.7,3.4c-0.8,0.3-2,0.6-3.5,0.6C162.9,23.3,161.3,20.9,161.3,17.2z"/>
			<path class="st20" d="M171.6,18.5c0-3.3,2.7-5.2,8.9-5.8c-0.1-1.4-0.8-2.3-2.5-2.3c-1.3,0-2.7,0.5-4.2,1.4l-1.7-3.1
				c2-1.2,4.3-2.1,6.8-2.1c4.1,0,6.3,2.3,6.3,7.2v9.1h-3.8l-0.3-1.6h-0.1c-1.3,1.2-2.8,2-4.6,2C173.4,23.3,171.6,21.2,171.6,18.5z
				 M180.5,18.3v-2.8c-3.3,0.4-4.4,1.4-4.4,2.6c0,1,0.7,1.5,1.8,1.5C179,19.7,179.7,19.2,180.5,18.3z"/>
			<path class="st20" d="M189.2,18V0.5h4.7v17.7c0,1,0.4,1.3,0.8,1.3c0.2,0,0.3,0,0.6-0.1l0.6,3.5c-0.5,0.2-1.3,0.4-2.4,0.4
				C190.3,23.3,189.2,21.2,189.2,18z"/>
			<path class="st20" d="M198.3,0.5h4.6v12.9h0.1l5-6.3h5.1l-5.6,6.5l6,9.3h-5.1l-3.6-6.2l-2,2.3v3.9h-4.6V0.5z"/>
			<path class="st20" d="M221.5,18.5c0-3.3,2.7-5.2,8.9-5.8c-0.1-1.4-0.8-2.3-2.5-2.3c-1.3,0-2.7,0.5-4.2,1.4l-1.7-3.1
				c2-1.2,4.3-2.1,6.8-2.1c4.1,0,6.3,2.3,6.3,7.2v9.1h-3.8l-0.3-1.6h-0.1c-1.3,1.2-2.8,2-4.6,2C223.3,23.3,221.5,21.2,221.5,18.5z
				 M230.4,18.3v-2.8c-3.3,0.4-4.4,1.4-4.4,2.6c0,1,0.7,1.5,1.8,1.5C228.9,19.7,229.6,19.2,230.4,18.3z"/>
			<path class="st20" d="M243.3,21.2h-0.1l-0.4,1.7h-3.7V0.5h4.7V6l-0.1,2.4c1.2-1.1,2.7-1.8,4.2-1.8c3.8,0,6.2,3.2,6.2,8
				c0,5.5-3.3,8.6-6.7,8.6C246,23.3,244.6,22.6,243.3,21.2z M249.3,14.8c0-2.8-0.9-4.3-2.8-4.3c-1,0-1.8,0.4-2.7,1.4v6.5
				c0.8,0.8,1.7,1,2.5,1C248,19.5,249.3,18.1,249.3,14.8z"/>
			<path class="st20" d="M256.5,15c0-5.3,3.7-8.3,7.7-8.3c4,0,7.7,3,7.7,8.3c0,5.3-3.7,8.3-7.7,8.3C260.2,23.3,256.5,20.3,256.5,15z
				 M267.2,15c0-2.8-1-4.5-2.9-4.5c-2,0-2.9,1.8-2.9,4.5c0,2.8,1,4.5,2.9,4.5C266.2,19.5,267.2,17.7,267.2,15z"/>
			<path class="st20" d="M275.1,16.9V7.1h4.7v9.2c0,2.3,0.6,3,2,3c1.2,0,1.9-0.5,2.8-1.8V7.1h4.7v15.9h-3.8l-0.4-2.2H285
				c-1.3,1.6-2.8,2.6-5,2.6C276.5,23.3,275.1,20.9,275.1,16.9z"/>
			<path class="st20" d="M294,17.2v-6.4h-2.2V7.3l2.4-0.2l0.5-4.2h3.9v4.2h3.8v3.7h-3.8v6.4c0,1.8,0.8,2.5,2,2.5
				c0.5,0,1.1-0.2,1.5-0.3l0.7,3.4c-0.8,0.3-2,0.6-3.5,0.6C295.6,23.3,294,20.9,294,17.2z"/>
		</g>
	</g>
</g>
</svg>
