<?xml version="1.0" encoding="utf-8"?>
<!-- Generator: Adobe Illustrator 19.0.1, SVG Export Plug-In . SVG Version: 6.00 Build 0)  -->
<svg version="1.1" id="Layer_1" xmlns="http://www.w3.org/2000/svg" xmlns:xlink="http://www.w3.org/1999/xlink" x="0px" y="0px"
	 viewBox="0 0 392 157.7" style="enable-background:new 0 0 392 157.7;" xml:space="preserve">
<style type="text/css">
	.st0{fill-rule:evenodd;clip-rule:evenodd;fill:#FFFDE8;}
	.st1{fill:#189BA3;}
	.st2{fill:#4F3A4B;}
	.st3{fill:#E75152;}
	.st4{fill:#FFFDE8;}
	.st5{fill:none;stroke:#189BA3;stroke-width:2;stroke-miterlimit:10;}
	.st6{fill:none;stroke:#189BA3;stroke-width:3;stroke-miterlimit:10;}
	.st7{fill:none;stroke:#189BA3;stroke-width:4;stroke-miterlimit:10;}
	.st8{opacity:0.5;fill-rule:evenodd;clip-rule:evenodd;fill:#189BA3;}
	.st9{opacity:0.5;}
	.st10{fill-rule:evenodd;clip-rule:evenodd;fill:#189BA3;}
	.st11{fill:none;stroke:#FFFDE8;stroke-width:4;stroke-miterlimit:10;}
	.st12{fill-rule:evenodd;clip-rule:evenodd;fill:#025E68;}
	.st13{fill:#025E68;}
	.st14{clip-path:url(#SVGID_2_);}
	.st15{fill-rule:evenodd;clip-rule:evenodd;fill:#2F3938;}
	.st16{fill:#01FEAE;}
	.st17{fill:#FEFEFE;}
	.st18{fill-rule:evenodd;clip-rule:evenodd;fill:#26CF92;}
	.st19{fill:#D2BEB7;}
	.st20{fill:#2F3938;}
	.st21{fill:#26CF92;}
	.st22{fill:none;stroke:#2F3938;stroke-width:2;stroke-miterlimit:10;}
	.st23{fill-rule:evenodd;clip-rule:evenodd;fill:#D7D3D3;}
	.st24{fill-rule:evenodd;clip-rule:evenodd;fill:#D7D3D3;stroke:#01FEAE;stroke-width:14;stroke-miterlimit:10;}
	.st25{fill-rule:evenodd;clip-rule:evenodd;fill:#FEFEFE;}
	.st26{fill-rule:evenodd;clip-rule:evenodd;fill:#01FEAE;}
	.st27{fill-rule:evenodd;clip-rule:evenodd;fill:#998675;}
	.st28{fill-rule:evenodd;clip-rule:evenodd;fill:none;stroke:#D7D3D3;stroke-width:14;stroke-miterlimit:10;}
	.st29{fill-rule:evenodd;clip-rule:evenodd;fill:none;stroke:#26CF92;stroke-width:6;stroke-miterlimit:10;}
	.st30{fill-rule:evenodd;clip-rule:evenodd;fill:none;stroke:#26CF92;stroke-width:3;stroke-miterlimit:10;}
	.st31{fill-rule:evenodd;clip-rule:evenodd;fill:#FF1D25;}
	.st32{fill-rule:evenodd;clip-rule:evenodd;fill:none;stroke:#2F3938;stroke-width:3;stroke-miterlimit:10;}
	.st33{fill-rule:evenodd;clip-rule:evenodd;fill:#75A087;}
	.st34{fill:#FEFEFE;stroke:#2F3938;stroke-width:6;stroke-miterlimit:10;}
	.st35{fill-rule:evenodd;clip-rule:evenodd;fill:none;stroke:#2F3938;stroke-width:6;stroke-miterlimit:10;}
	.st36{fill-rule:evenodd;clip-rule:evenodd;fill:#FEFEFE;stroke:#2F3938;stroke-width:6;stroke-miterlimit:10;}
</style>
<g>
	<g>
		<g>
			<path class="st20" d="M0.5,68.6c0-37.8,25.2-59.9,55.7-59.9C72.6,8.8,84.5,16,92,23.7L78.6,40.1C72.8,35,66.8,31,57,31
				c-17.7,0-30.1,13.8-30.1,36.8c0,23.5,10.7,37.1,32,37.1c4.7,0,9.4-1.2,12.2-3.5V81.8H52.3v-21H94v52.5
				c-7.9,7.7-21.7,13.8-37.6,13.8C25,127.1,0.5,107,0.5,68.6z"/>
			<path class="st20" d="M102.7,100.8c0-18.2,14.5-28.2,48.8-31.7c-0.5-7.7-4.2-12.6-13.7-12.6c-7.3,0-14.5,3-22.9,7.9l-9.3-17
				c11-6.7,23.5-11.4,37.1-11.4c22.2,0,34.5,12.6,34.5,39.2V125h-21l-1.8-8.9h-0.7c-7.4,6.5-15.4,11-25.2,11
				C112.7,127.1,102.7,115.5,102.7,100.8z M151.5,99.8V84.6c-18.2,2.5-24.2,7.7-24.2,14.4c0,5.6,3.8,8.2,10,8.2
				C143.1,107.1,147,104.3,151.5,99.8z"/>
			<path class="st20" d="M190.2,38.2h21l1.8,8.6h0.7c6.8-6.1,15.6-10.7,24.7-10.7c21,0,33.9,17.3,33.9,44.1
				c0,29.8-17.8,46.9-36.6,46.9c-7.5,0-14.5-3.3-20.7-9.1l0.9,13.8v25.4h-25.7V38.2z M245.8,80.5c0-15.6-4.7-23.5-15.1-23.5
				c-5.2,0-9.8,2.5-14.9,7.9v35.5c4.5,4.2,9.4,5.6,13.8,5.6C238.7,106.1,245.8,98.4,245.8,80.5z"/>
		</g>
		<g>
			<path class="st20" d="M105.3,2.7h5.2l3.4,9.3c0.4,1.2,0.8,2.6,1.2,3.8h0.1c0.4-1.3,0.8-2.6,1.2-3.8l3.3-9.3h5.1v20.9h-4.3V16
				c0-2,0.4-5.1,0.6-7.1H121l-1.7,5l-3,8h-2.6l-3-8l-1.7-5h-0.1c0.2,2,0.6,5.1,0.6,7.1v7.6h-4.2V2.7z"/>
			<path class="st20" d="M128.9,2.9c0-1.4,1.2-2.4,2.7-2.4c1.6,0,2.7,1,2.7,2.4c0,1.4-1.1,2.5-2.7,2.5
				C130.1,5.4,128.9,4.4,128.9,2.9z M129.3,7.7h4.7v15.9h-4.7V7.7z"/>
			<path class="st20" d="M138.1,7.7h3.8l0.3,2h0.1c1.3-1.3,2.9-2.4,5.1-2.4c3.5,0,4.9,2.4,4.9,6.4v9.9h-4.7v-9.2c0-2.3-0.6-3-2-3
				c-1.2,0-1.9,0.5-2.9,1.5v10.7h-4.7V7.7z"/>
			<path class="st20" d="M155.6,15.7c0-5.2,3.2-8.3,6.6-8.3c1.8,0,2.8,0.6,3.9,1.7l-0.2-2.4V1.2h4.7v22.4h-3.8l-0.3-1.6h-0.1
				c-1.1,1.1-2.7,2-4.2,2C158.2,24,155.6,20.9,155.6,15.7z M165.9,18.7v-6.5c-0.8-0.8-1.8-1-2.6-1c-1.5,0-2.8,1.4-2.8,4.4
				c0,3.1,1.1,4.5,2.9,4.5C164.3,20.1,165.2,19.8,165.9,18.7z"/>
			<path class="st20" d="M181.8,17.8v-6.4h-2.2V7.9l2.4-0.2l0.5-4.2h3.9v4.2h3.8v3.7h-3.8v6.4c0,1.8,0.8,2.5,2,2.5
				c0.5,0,1.1-0.2,1.5-0.3l0.7,3.4c-0.8,0.3-2,0.6-3.5,0.6C183.4,24,181.8,21.5,181.8,17.8z"/>
			<path class="st20" d="M193.4,1.2h4.7v5.5l-0.2,2.8c1.2-1.1,2.8-2.2,4.9-2.2c3.5,0,4.9,2.4,4.9,6.4v9.9H203v-9.2c0-2.3-0.6-3-2-3
				c-1.2,0-1.9,0.5-2.9,1.5v10.7h-4.7V1.2z"/>
			<path class="st20" d="M210.8,15.7c0-5.2,3.7-8.3,7.5-8.3c4.5,0,6.8,3.3,6.8,7.6c0,0.8-0.1,1.7-0.2,2.1h-9.5
				c0.4,2.3,2,3.4,4.1,3.4c1.2,0,2.3-0.4,3.4-1.1l1.6,2.8c-1.6,1.1-3.7,1.8-5.6,1.8C214.3,24,210.8,20.9,210.8,15.7z M221,13.9
				c0-1.8-0.8-3-2.7-3c-1.5,0-2.8,1-3.1,3H221z"/>
		</g>
	</g>
</g>
</svg>
