<?xml version="1.0" encoding="utf-8"?>
<!-- Generator: Adobe Illustrator 19.0.1, SVG Export Plug-In . SVG Version: 6.00 Build 0)  -->
<svg version="1.1" id="Layer_1" xmlns="http://www.w3.org/2000/svg" xmlns:xlink="http://www.w3.org/1999/xlink" x="0px" y="0px"
	 viewBox="0 0 992.8 88.9" style="enable-background:new 0 0 992.8 88.9;" xml:space="preserve">
<style type="text/css">
	.st0{fill-rule:evenodd;clip-rule:evenodd;fill:#FFFDE8;}
	.st1{fill:#189BA3;}
	.st2{fill:#4F3A4B;}
	.st3{fill:#E75152;}
	.st4{fill:#FFFDE8;}
	.st5{fill:none;stroke:#189BA3;stroke-width:2;stroke-miterlimit:10;}
	.st6{fill:none;stroke:#189BA3;stroke-width:3;stroke-miterlimit:10;}
	.st7{fill:none;stroke:#189BA3;stroke-width:4;stroke-miterlimit:10;}
	.st8{opacity:0.5;fill-rule:evenodd;clip-rule:evenodd;fill:#189BA3;}
	.st9{opacity:0.5;}
	.st10{fill-rule:evenodd;clip-rule:evenodd;fill:#189BA3;}
	.st11{fill:none;stroke:#FFFDE8;stroke-width:4;stroke-miterlimit:10;}
	.st12{fill-rule:evenodd;clip-rule:evenodd;fill:#025E68;}
	.st13{fill:#025E68;}
	.st14{clip-path:url(#SVGID_2_);}
	.st15{fill-rule:evenodd;clip-rule:evenodd;fill:#2F3938;}
	.st16{fill:#01FEAE;}
	.st17{fill:#FEFEFE;}
	.st18{fill-rule:evenodd;clip-rule:evenodd;fill:#26CF92;}
	.st19{fill:#D2BEB7;}
	.st20{fill:#2F3938;}
	.st21{fill:#26CF92;}
	.st22{fill:none;stroke:#2F3938;stroke-width:2;stroke-miterlimit:10;}
	.st23{fill-rule:evenodd;clip-rule:evenodd;fill:#D7D3D3;}
	.st24{fill-rule:evenodd;clip-rule:evenodd;fill:#D7D3D3;stroke:#01FEAE;stroke-width:14;stroke-miterlimit:10;}
	.st25{fill-rule:evenodd;clip-rule:evenodd;fill:#FEFEFE;}
	.st26{fill-rule:evenodd;clip-rule:evenodd;fill:#01FEAE;}
	.st27{fill-rule:evenodd;clip-rule:evenodd;fill:#998675;}
	.st28{fill-rule:evenodd;clip-rule:evenodd;fill:none;stroke:#D7D3D3;stroke-width:14;stroke-miterlimit:10;}
	.st29{fill-rule:evenodd;clip-rule:evenodd;fill:none;stroke:#26CF92;stroke-width:6;stroke-miterlimit:10;}
	.st30{fill-rule:evenodd;clip-rule:evenodd;fill:none;stroke:#26CF92;stroke-width:3;stroke-miterlimit:10;}
	.st31{fill-rule:evenodd;clip-rule:evenodd;fill:#FF1D25;}
	.st32{fill-rule:evenodd;clip-rule:evenodd;fill:none;stroke:#2F3938;stroke-width:3;stroke-miterlimit:10;}
	.st33{fill-rule:evenodd;clip-rule:evenodd;fill:#75A087;}
	.st34{fill:#FEFEFE;stroke:#2F3938;stroke-width:6;stroke-miterlimit:10;}
	.st35{fill-rule:evenodd;clip-rule:evenodd;fill:none;stroke:#2F3938;stroke-width:6;stroke-miterlimit:10;}
	.st36{fill-rule:evenodd;clip-rule:evenodd;fill:#FEFEFE;stroke:#2F3938;stroke-width:6;stroke-miterlimit:10;}
</style>
<g>
	<path class="st17" d="M0.5,7.2h21c12.8,0,22.7,3.5,22.7,15.2c0,5.5-3.2,11.4-10.3,13.3v0.4c8.8,1.6,13.4,6.2,13.4,14.4
		c0,12.5-10.5,18.1-23.9,18.1H0.5V7.2z M20.8,32c6.8,0,9.8-2.9,9.8-7.5c0-4.6-3.2-6.5-9.6-6.5h-6.6v14H20.8z M22.1,57.9
		c7.5,0,11.5-2.8,11.5-8.4c0-5.4-3.9-7.7-11.5-7.7h-7.7v16.1H22.1z"/>
	<path class="st17" d="M51.1,21.9h13.8v27.2c0,6.7,1.8,8.8,5.8,8.8c3.5,0,5.6-1.5,8.3-5.2V21.9h13.8v46.7H81.6l-1-6.5h-0.3
		c-4,4.7-8.3,7.6-14.7,7.6c-10.2,0-14.5-7.2-14.5-18.8V21.9z"/>
	<path class="st17" d="M99.2,7.8c0-4.2,3.4-7.2,8-7.2c4.7,0,8,2.9,8,7.2s-3.3,7.2-8,7.2C102.6,15.1,99.2,12,99.2,7.8z M100.3,21.9
		h13.8v46.7h-13.8V21.9z"/>
	<path class="st17" d="M121.6,2.6h13.8v52c0,2.9,1.3,3.9,2.4,3.9c0.6,0,0.9,0,1.7-0.2l1.7,10.3c-1.5,0.7-3.9,1.1-7,1.1
		c-9.5,0-12.7-6.2-12.7-15.6V2.6z"/>
	<path class="st17" d="M160.7,20.8c5.2,0,8.3,1.9,11.5,4.9l-0.6-7.2V2.6h13.8v66h-11.3l-0.9-4.6h-0.4c-3.3,3.3-7.9,5.7-12.4,5.7
		c-11.6,0-19.1-9.2-19.1-24.5C141.4,30,150.9,20.8,160.7,20.8z M164,58.4c3,0,5.4-1.1,7.6-4.2V35.1c-2.4-2.3-5.2-3-7.7-3
		c-4.4,0-8.4,4.1-8.4,13C155.6,54.3,158.7,58.4,164,58.4z"/>
	<path class="st17" d="M191.9,7.8c0-4.2,3.4-7.2,8-7.2c4.7,0,8,2.9,8,7.2s-3.3,7.2-8,7.2C195.3,15.1,191.9,12,191.9,7.8z M193,21.9
		h13.8v46.7H193V21.9z"/>
	<path class="st17" d="M214.3,21.9h11.3l0.9,5.9h0.4c4-3.8,8.7-7.1,15-7.1c10.2,0,14.5,7.2,14.5,18.8v29h-13.8V41.4
		c0-6.8-1.8-8.8-5.7-8.8c-3.5,0-5.6,1.6-8.7,4.5v31.5h-13.8V21.9z"/>
	<path class="st17" d="M267.2,67.2v-0.4c-2.4-1.6-4.3-4-4.3-7.9c0-3.4,2.3-6.7,5.3-8.8v-0.4c-3.3-2.3-6.3-6.7-6.3-12.1
		c0-11.2,9.2-16.8,19.3-16.8c2.6,0,5.2,0.4,7.2,1.1h17V32h-7.4c0.8,1.4,1.5,3.7,1.5,6.1c0,10.7-8.1,15.7-18.3,15.7
		c-1.7,0-3.6-0.3-5.6-0.9c-1.2,1-1.7,1.9-1.7,3.5c0,2.4,1.9,3.5,7.1,3.5h7.5c11.5,0,17.8,3.5,17.8,11.9c0,9.7-10.1,16.7-26.1,16.7
		c-10.9,0-19.6-3.6-19.6-11.9C260.5,72.7,262.8,69.6,267.2,67.2z M282.2,79.8c6.2,0,10.7-2.5,10.7-5.7c0-2.9-2.5-3.7-7.2-3.7H281
		c-3.2,0-5.1-0.2-6.6-0.6c-1.7,1.5-2.5,2.9-2.5,4.6C271.9,77.9,276,79.8,282.2,79.8z M287.5,37.6c0-4.9-2.7-7.5-6.4-7.5
		s-6.4,2.5-6.4,7.5c0,5.2,2.7,7.8,6.4,7.8S287.5,42.8,287.5,37.6z"/>
	<path class="st17" d="M323.8,2.6h13.8v16.2l-0.4,7.2c3.6-3.2,8-5.2,12.3-5.2c11.3,0,18.3,9.3,18.3,23.6c0,16.1-9.6,25.3-19.7,25.3
		c-4.1,0-8.5-2.1-12.1-6h-0.4l-1.1,4.9h-10.8V2.6z M345.1,58.4c4.8,0,8.7-4.1,8.7-13.7c0-8.4-2.5-12.6-8.1-12.6
		c-2.8,0-5.4,1.3-8,4.2v19.1C340.1,57.7,342.7,58.4,345.1,58.4z"/>
	<path class="st17" d="M392.3,20.8c13.3,0,19.9,9.7,19.9,22.4c0,2.4-0.3,4.7-0.6,5.8h-27.9c1.2,7.1,5.9,10.2,12.1,10.2
		c3.5,0,6.7-1,10.1-3.1l4.6,8.4c-4.8,3.3-11,5.3-16.6,5.3c-13.4,0-23.6-9-23.6-24.5C370.3,30.1,381.1,20.8,392.3,20.8z M400.4,40.5
		c0-5.4-2.3-9.1-7.8-9.1c-4.3,0-8.1,2.9-9,9.1H400.4z"/>
	<path class="st17" d="M417.2,32.7h-6.4V22.5l7.2-0.6l1.6-12.4h11.5v12.4h11.2v10.8h-11.2v18.7c0,5.3,2.4,7.4,6,7.4
		c1.5,0,3.2-0.5,4.4-0.9l2.2,10.1c-2.4,0.8-5.8,1.7-10.3,1.7c-11.6,0-16.1-7.2-16.1-18.1V32.7z"/>
	<path class="st17" d="M448.6,32.7h-6.4V22.5l7.2-0.6l1.6-12.4h11.5v12.4h11.2v10.8h-11.2v18.7c0,5.3,2.4,7.4,6,7.4
		c1.5,0,3.2-0.5,4.4-0.9L475,68c-2.4,0.8-5.8,1.7-10.3,1.7c-11.6,0-16.1-7.2-16.1-18.1V32.7z"/>
	<path class="st17" d="M496.4,20.8c13.3,0,19.9,9.7,19.9,22.4c0,2.4-0.3,4.7-0.6,5.8h-27.9c1.2,7.1,5.9,10.2,12.1,10.2
		c3.5,0,6.7-1,10.1-3.1l4.6,8.4c-4.8,3.3-11,5.3-16.6,5.3c-13.4,0-23.6-9-23.6-24.5C474.3,30.1,485.2,20.8,496.4,20.8z M504.4,40.5
		c0-5.4-2.3-9.1-7.8-9.1c-4.3,0-8.1,2.9-9,9.1H504.4z"/>
	<path class="st17" d="M521.1,21.9h11.3l0.9,8.2h0.4c3.4-6.3,8.5-9.3,13.3-9.3c2.6,0,4.2,0.4,5.6,0.9l-2.3,11.9
		c-1.7-0.5-3.1-0.8-5.1-0.8c-3.5,0-7.8,2.3-10.3,8.6v27.1h-13.8V21.9z"/>
	<path class="st17" d="M569.8,7.2h21c12.8,0,22.7,3.5,22.7,15.2c0,5.5-3.2,11.4-10.3,13.3v0.4c8.8,1.6,13.4,6.2,13.4,14.4
		c0,12.5-10.5,18.1-23.9,18.1h-22.8V7.2z M590.1,32c6.8,0,9.8-2.9,9.8-7.5c0-4.6-3.2-6.5-9.6-6.5h-6.6v14H590.1z M591.4,57.9
		c7.5,0,11.5-2.8,11.5-8.4c0-5.4-3.9-7.7-11.5-7.7h-7.7v16.1H591.4z"/>
	<path class="st17" d="M620.4,21.9h13.8v27.2c0,6.7,1.8,8.8,5.8,8.8c3.5,0,5.6-1.5,8.3-5.2V21.9h13.8v46.7h-11.3l-1-6.5h-0.3
		c-4,4.7-8.3,7.6-14.7,7.6c-10.2,0-14.5-7.2-14.5-18.8V21.9z"/>
	<path class="st17" d="M671.7,54.6c4.2,3.2,8.1,4.9,12,4.9c4.1,0,5.9-1.5,5.9-4c0-3.1-4.7-4.5-9.5-6.4c-5.6-2.2-12.3-6-12.3-13.7
		c0-8.7,7.1-14.6,17.9-14.6c7.2,0,12.4,2.9,16.5,5.9l-6.2,8.3c-3.4-2.4-6.6-4-9.9-4c-3.6,0-5.3,1.3-5.3,3.7c0,3,4.3,4.1,9.1,5.9
		c5.9,2.2,12.6,5.5,12.6,14c0,8.5-6.7,15.1-19.2,15.1c-6.1,0-13.2-2.6-17.9-6.5L671.7,54.6z"/>
	<path class="st17" d="M705.4,7.8c0-4.2,3.4-7.2,8-7.2c4.7,0,8,2.9,8,7.2s-3.3,7.2-8,7.2C708.8,15.1,705.4,12,705.4,7.8z
		 M706.6,21.9h13.8v46.7h-13.8V21.9z"/>
	<path class="st17" d="M727.8,21.9h11.3l0.9,5.9h0.4c4-3.8,8.7-7.1,15-7.1c10.2,0,14.5,7.2,14.5,18.8v29H756V41.4
		c0-6.8-1.8-8.8-5.7-8.8c-3.5,0-5.6,1.6-8.7,4.5v31.5h-13.8V21.9z"/>
	<path class="st17" d="M796.2,20.8c13.3,0,19.9,9.7,19.9,22.4c0,2.4-0.3,4.7-0.6,5.8h-27.9c1.2,7.1,5.9,10.2,12.1,10.2
		c3.5,0,6.7-1,10.1-3.1l4.6,8.4c-4.8,3.3-11,5.3-16.6,5.3c-13.4,0-23.6-9-23.6-24.5C774.2,30.1,785,20.8,796.2,20.8z M804.3,40.5
		c0-5.4-2.3-9.1-7.8-9.1c-4.3,0-8.1,2.9-9,9.1H804.3z"/>
	<path class="st17" d="M823,54.6c4.2,3.2,8.1,4.9,12,4.9c4.1,0,5.9-1.5,5.9-4c0-3.1-4.7-4.5-9.5-6.4c-5.6-2.2-12.3-6-12.3-13.7
		c0-8.7,7.1-14.6,17.9-14.6c7.2,0,12.4,2.9,16.5,5.9l-6.2,8.3c-3.4-2.4-6.6-4-9.9-4c-3.6,0-5.3,1.3-5.3,3.7c0,3,4.3,4.1,9.1,5.9
		c5.9,2.2,12.6,5.5,12.6,14c0,8.5-6.7,15.1-19.2,15.1c-6.1,0-13.2-2.6-17.9-6.5L823,54.6z"/>
	<path class="st17" d="M860,54.6c4.2,3.2,8.1,4.9,12,4.9c4.1,0,5.9-1.5,5.9-4c0-3.1-4.7-4.5-9.5-6.4c-5.6-2.2-12.3-6-12.3-13.7
		c0-8.7,7.1-14.6,17.9-14.6c7.2,0,12.4,2.9,16.5,5.9l-6.2,8.3c-3.4-2.4-6.6-4-9.9-4c-3.6,0-5.3,1.3-5.3,3.7c0,3,4.3,4.1,9.1,5.9
		c5.9,2.2,12.6,5.5,12.6,14c0,8.5-6.7,15.1-19.2,15.1c-6.1,0-13.2-2.6-17.9-6.5L860,54.6z"/>
	<path class="st17" d="M914.2,20.8c13.3,0,19.9,9.7,19.9,22.4c0,2.4-0.3,4.7-0.6,5.8h-27.9c1.2,7.1,5.9,10.2,12.1,10.2
		c3.5,0,6.7-1,10.1-3.1l4.6,8.4c-4.8,3.3-11,5.3-16.6,5.3c-13.4,0-23.6-9-23.6-24.5C892.2,30.1,903,20.8,914.2,20.8z M922.3,40.5
		c0-5.4-2.3-9.1-7.8-9.1c-4.3,0-8.1,2.9-9,9.1H922.3z"/>
	<path class="st17" d="M941,54.6c4.2,3.2,8.1,4.9,12,4.9c4.1,0,5.9-1.5,5.9-4c0-3.1-4.7-4.5-9.5-6.4c-5.6-2.2-12.3-6-12.3-13.7
		c0-8.7,7.1-14.6,17.9-14.6c7.2,0,12.4,2.9,16.5,5.9l-6.2,8.3c-3.4-2.4-6.6-4-9.9-4c-3.6,0-5.3,1.3-5.3,3.7c0,3,4.3,4.1,9.1,5.9
		c5.9,2.2,12.6,5.5,12.6,14c0,8.5-6.7,15.1-19.2,15.1c-6.1,0-13.2-2.6-17.9-6.5L941,54.6z"/>
	<path class="st17" d="M983.9,52.3c4.8,0,8.4,3.8,8.4,8.8c0,4.9-3.6,8.7-8.4,8.7c-4.8,0-8.4-3.8-8.4-8.7
		C975.6,56.1,979.1,52.3,983.9,52.3z"/>
</g>
</svg>
