<?xml version="1.0" encoding="utf-8"?>
<!-- Generator: Adobe Illustrator 19.0.1, SVG Export Plug-In . SVG Version: 6.00 Build 0)  -->
<svg version="1.1" id="Layer_1" xmlns="http://www.w3.org/2000/svg" xmlns:xlink="http://www.w3.org/1999/xlink" x="0px" y="0px"
	 viewBox="0 0 86.1 87" style="enable-background:new 0 0 86.1 87;" xml:space="preserve">
<style type="text/css">
	.st0{fill-rule:evenodd;clip-rule:evenodd;fill:#FFFDE8;}
	.st1{fill:#189BA3;}
	.st2{fill:#4F3A4B;}
	.st3{fill:#E75152;}
	.st4{fill:#FFFDE8;}
	.st5{fill:none;stroke:#189BA3;stroke-width:2;stroke-miterlimit:10;}
	.st6{fill:none;stroke:#189BA3;stroke-width:3;stroke-miterlimit:10;}
	.st7{fill:none;stroke:#189BA3;stroke-width:4;stroke-miterlimit:10;}
	.st8{opacity:0.5;fill-rule:evenodd;clip-rule:evenodd;fill:#189BA3;}
	.st9{opacity:0.5;}
	.st10{fill-rule:evenodd;clip-rule:evenodd;fill:#189BA3;}
	.st11{fill:none;stroke:#FFFDE8;stroke-width:4;stroke-miterlimit:10;}
	.st12{fill-rule:evenodd;clip-rule:evenodd;fill:#025E68;}
	.st13{fill:#025E68;}
	.st14{clip-path:url(#SVGID_2_);}
	.st15{fill-rule:evenodd;clip-rule:evenodd;fill:#2F3938;}
	.st16{fill:#01FEAE;}
	.st17{fill:#FEFEFE;}
	.st18{fill-rule:evenodd;clip-rule:evenodd;fill:#26CF92;}
	.st19{fill:#D2BEB7;}
	.st20{fill:#2F3938;}
	.st21{fill:#26CF92;}
	.st22{fill:none;stroke:#2F3938;stroke-width:2;stroke-miterlimit:10;}
	.st23{fill-rule:evenodd;clip-rule:evenodd;fill:#D7D3D3;}
	.st24{fill-rule:evenodd;clip-rule:evenodd;fill:#D7D3D3;stroke:#01FEAE;stroke-width:14;stroke-miterlimit:10;}
	.st25{fill-rule:evenodd;clip-rule:evenodd;fill:#FEFEFE;}
	.st26{fill-rule:evenodd;clip-rule:evenodd;fill:#01FEAE;}
	.st27{fill-rule:evenodd;clip-rule:evenodd;fill:#998675;}
	.st28{fill-rule:evenodd;clip-rule:evenodd;fill:none;stroke:#D7D3D3;stroke-width:14;stroke-miterlimit:10;}
	.st29{fill-rule:evenodd;clip-rule:evenodd;fill:none;stroke:#26CF92;stroke-width:6;stroke-miterlimit:10;}
	.st30{fill-rule:evenodd;clip-rule:evenodd;fill:none;stroke:#26CF92;stroke-width:3;stroke-miterlimit:10;}
	.st31{fill-rule:evenodd;clip-rule:evenodd;fill:#FF1D25;}
	.st32{fill-rule:evenodd;clip-rule:evenodd;fill:none;stroke:#2F3938;stroke-width:3;stroke-miterlimit:10;}
	.st33{fill-rule:evenodd;clip-rule:evenodd;fill:#75A087;}
	.st34{fill:#FEFEFE;stroke:#2F3938;stroke-width:6;stroke-miterlimit:10;}
	.st35{fill-rule:evenodd;clip-rule:evenodd;fill:none;stroke:#2F3938;stroke-width:6;stroke-miterlimit:10;}
	.st36{fill-rule:evenodd;clip-rule:evenodd;fill:#FEFEFE;stroke:#2F3938;stroke-width:6;stroke-miterlimit:10;}
</style>
<g>
	<g>
		<g>
			<path class="st19" d="M51.3,48.9L51.3,48.9c-3.2,0-5.4-3-5.4-3.1c-0.2-0.3-0.2-0.6-0.1-0.9c0.2-0.3,0.5-0.5,0.8-0.5h9.2
				c0.4,0,0.7,0.2,0.8,0.5c0.2,0.3,0.1,0.7-0.1,1C55,47.8,53.2,48.9,51.3,48.9z M48.9,46.3c0.7,0,1.5,0.9,2.4,0.9l0,0
				c0.8,0,1.6-0.9,2.3-0.9H48.9z"/>
		</g>
		<g>
			<path class="st19" d="M35.3,48.9L35.3,48.9c-3.2,0-5.4-3-5.4-3.1c-0.2-0.3-0.2-0.6-0.1-0.9c0.2-0.3,0.5-0.5,0.8-0.5h9.2
				c0.4,0,0.7,0.2,0.8,0.5c0.2,0.3,0.1,0.7-0.1,1C39,47.8,37.2,48.9,35.3,48.9z M32.9,46.3c0.7,0,1.5,0.9,2.4,0.9l0,0
				c0.8,0,1.6-0.9,2.3-0.9H32.9z"/>
		</g>
		<path class="st19" d="M67.6,38.1c0-13.6-10.9-24.6-24.5-24.6c-13.2,0-23.9,10.4-24.5,23.4c0,0.4,0,0.8,0,1.3v27.1v0.2l19,8.1v-0.2
			h11v0.2l19-8.1V38.1z M35.7,18.3l4.5,16.1h0.2h2.5h2.8h0.2l4.5-16.1c1.7,1,9.1,5.3,10.7,8.1l-2.2,10c-15.3,6.4-30.1,0.9-31.5,0.3
			l-2.3-10.3C26.6,23.5,34,19.2,35.7,18.3z M48.4,70.3H37.5c-1.6-11-13-23.2-14.5-24.7l3.6-6.7c1.5,0.6,7.9,2.9,16.4,2.9
			c4.9,0,10.6-0.8,16.4-3.1l3.7,6.9C61.5,47.2,49.9,59.3,48.4,70.3z"/>
	</g>
</g>
</svg>
