<?xml version="1.0" encoding="utf-8"?>
<!-- Generator: Adobe Illustrator 19.0.1, SVG Export Plug-In . SVG Version: 6.00 Build 0)  -->
<svg version="1.1" id="Layer_1" xmlns="http://www.w3.org/2000/svg" xmlns:xlink="http://www.w3.org/1999/xlink" x="0px" y="0px"
	 viewBox="0 0 33.9 25.2" style="enable-background:new 0 0 33.9 25.2;" xml:space="preserve">
<style type="text/css">
	.st0{fill-rule:evenodd;clip-rule:evenodd;fill:#FFFDE8;}
	.st1{fill:#189BA3;}
	.st2{fill:#4F3A4B;}
	.st3{fill:#E75152;}
	.st4{fill:#FFFDE8;}
	.st5{fill:none;stroke:#189BA3;stroke-width:2;stroke-miterlimit:10;}
	.st6{fill:none;stroke:#189BA3;stroke-width:3;stroke-miterlimit:10;}
	.st7{fill:none;stroke:#189BA3;stroke-width:4;stroke-miterlimit:10;}
	.st8{opacity:0.5;fill-rule:evenodd;clip-rule:evenodd;fill:#189BA3;}
	.st9{opacity:0.5;}
	.st10{fill-rule:evenodd;clip-rule:evenodd;fill:#189BA3;}
	.st11{fill:none;stroke:#FFFDE8;stroke-width:4;stroke-miterlimit:10;}
	.st12{fill-rule:evenodd;clip-rule:evenodd;fill:#025E68;}
	.st13{fill:#025E68;}
	.st14{clip-path:url(#SVGID_2_);}
	.st15{fill-rule:evenodd;clip-rule:evenodd;fill:#2F3938;}
	.st16{fill:#01FEAE;}
	.st17{fill:#FEFEFE;}
	.st18{fill-rule:evenodd;clip-rule:evenodd;fill:#26CF92;}
	.st19{fill:#D2BEB7;}
	.st20{fill:#2F3938;}
	.st21{fill:#26CF92;}
	.st22{fill:none;stroke:#2F3938;stroke-width:2;stroke-miterlimit:10;}
	.st23{fill-rule:evenodd;clip-rule:evenodd;fill:#D7D3D3;}
	.st24{fill-rule:evenodd;clip-rule:evenodd;fill:#D7D3D3;stroke:#01FEAE;stroke-width:14;stroke-miterlimit:10;}
	.st25{fill-rule:evenodd;clip-rule:evenodd;fill:#FEFEFE;}
	.st26{fill-rule:evenodd;clip-rule:evenodd;fill:#01FEAE;}
	.st27{fill-rule:evenodd;clip-rule:evenodd;fill:#998675;}
	.st28{fill-rule:evenodd;clip-rule:evenodd;fill:none;stroke:#D7D3D3;stroke-width:14;stroke-miterlimit:10;}
	.st29{fill-rule:evenodd;clip-rule:evenodd;fill:none;stroke:#26CF92;stroke-width:6;stroke-miterlimit:10;}
	.st30{fill-rule:evenodd;clip-rule:evenodd;fill:none;stroke:#26CF92;stroke-width:3;stroke-miterlimit:10;}
	.st31{fill-rule:evenodd;clip-rule:evenodd;fill:#FF1D25;}
	.st32{fill-rule:evenodd;clip-rule:evenodd;fill:none;stroke:#2F3938;stroke-width:3;stroke-miterlimit:10;}
	.st33{fill-rule:evenodd;clip-rule:evenodd;fill:#75A087;}
	.st34{fill:#FEFEFE;stroke:#2F3938;stroke-width:6;stroke-miterlimit:10;}
	.st35{fill-rule:evenodd;clip-rule:evenodd;fill:none;stroke:#2F3938;stroke-width:6;stroke-miterlimit:10;}
	.st36{fill-rule:evenodd;clip-rule:evenodd;fill:#FEFEFE;stroke:#2F3938;stroke-width:6;stroke-miterlimit:10;}
</style>
<g>
	<g>
		<path class="st20" d="M33.2,23.7c0.1-0.2,0.1-0.4,0.1-0.6V2.2c0-0.2,0-0.3-0.1-0.5L22.4,12.6L33.2,23.7z"/>
		<path class="st20" d="M15.4,14.8c0.4,0.4,0.9,0.6,1.5,0.6h0c0.6,0,1.2-0.2,1.5-0.6L32.5,0.7c-0.2-0.1-0.5-0.2-0.8-0.2H2.2
			c-0.2,0-0.4,0-0.6,0.1L15.4,14.8z"/>
		<path class="st20" d="M0.6,1.5C0.5,1.7,0.5,1.9,0.5,2.2v20.9c0,0.2,0,0.4,0.1,0.6l10.9-11.1L0.6,1.5z"/>
		<path class="st20" d="M21.5,13.5l-2.1,2.1c-0.6,0.6-1.5,1-2.4,1h0c-0.9,0-1.8-0.4-2.5-1l-2.1-2.2L1.5,24.6
			c0.2,0.1,0.4,0.1,0.6,0.1h29.5c0.2,0,0.4,0,0.6-0.1L21.5,13.5z"/>
	</g>
</g>
</svg>
