<?xml version="1.0" encoding="utf-8"?>
<!-- Generator: Adobe Illustrator 19.0.1, SVG Export Plug-In . SVG Version: 6.00 Build 0)  -->
<svg version="1.1" id="Layer_1" xmlns="http://www.w3.org/2000/svg" xmlns:xlink="http://www.w3.org/1999/xlink" x="0px" y="0px"
	 viewBox="0 0 392 157.7" style="enable-background:new 0 0 392 157.7;" xml:space="preserve">
<style type="text/css">
	.st0{fill-rule:evenodd;clip-rule:evenodd;fill:#FFFDE8;}
	.st1{fill:#189BA3;}
	.st2{fill:#4F3A4B;}
	.st3{fill:#E75152;}
	.st4{fill:#FFFDE8;}
	.st5{fill:none;stroke:#189BA3;stroke-width:2;stroke-miterlimit:10;}
	.st6{fill:none;stroke:#189BA3;stroke-width:3;stroke-miterlimit:10;}
	.st7{fill:none;stroke:#189BA3;stroke-width:4;stroke-miterlimit:10;}
	.st8{opacity:0.5;fill-rule:evenodd;clip-rule:evenodd;fill:#189BA3;}
	.st9{opacity:0.5;}
	.st10{fill-rule:evenodd;clip-rule:evenodd;fill:#189BA3;}
	.st11{fill:none;stroke:#FFFDE8;stroke-width:4;stroke-miterlimit:10;}
	.st12{fill-rule:evenodd;clip-rule:evenodd;fill:#025E68;}
	.st13{fill:#025E68;}
	.st14{clip-path:url(#SVGID_2_);}
	.st15{fill-rule:evenodd;clip-rule:evenodd;fill:#2F3938;}
	.st16{fill:#01FEAE;}
	.st17{fill:#FEFEFE;}
	.st18{fill-rule:evenodd;clip-rule:evenodd;fill:#26CF92;}
	.st19{fill:#D2BEB7;}
	.st20{fill:#2F3938;}
	.st21{fill:#26CF92;}
	.st22{fill:none;stroke:#2F3938;stroke-width:2;stroke-miterlimit:10;}
	.st23{fill-rule:evenodd;clip-rule:evenodd;fill:#D7D3D3;}
	.st24{fill-rule:evenodd;clip-rule:evenodd;fill:#D7D3D3;stroke:#01FEAE;stroke-width:14;stroke-miterlimit:10;}
	.st25{fill-rule:evenodd;clip-rule:evenodd;fill:#FEFEFE;}
	.st26{fill-rule:evenodd;clip-rule:evenodd;fill:#01FEAE;}
	.st27{fill-rule:evenodd;clip-rule:evenodd;fill:#998675;}
	.st28{fill-rule:evenodd;clip-rule:evenodd;fill:none;stroke:#D7D3D3;stroke-width:14;stroke-miterlimit:10;}
	.st29{fill-rule:evenodd;clip-rule:evenodd;fill:none;stroke:#26CF92;stroke-width:6;stroke-miterlimit:10;}
	.st30{fill-rule:evenodd;clip-rule:evenodd;fill:none;stroke:#26CF92;stroke-width:3;stroke-miterlimit:10;}
	.st31{fill-rule:evenodd;clip-rule:evenodd;fill:#FF1D25;}
	.st32{fill-rule:evenodd;clip-rule:evenodd;fill:none;stroke:#2F3938;stroke-width:3;stroke-miterlimit:10;}
	.st33{fill-rule:evenodd;clip-rule:evenodd;fill:#75A087;}
	.st34{fill:#FEFEFE;stroke:#2F3938;stroke-width:6;stroke-miterlimit:10;}
	.st35{fill-rule:evenodd;clip-rule:evenodd;fill:none;stroke:#2F3938;stroke-width:6;stroke-miterlimit:10;}
	.st36{fill-rule:evenodd;clip-rule:evenodd;fill:#FEFEFE;stroke:#2F3938;stroke-width:6;stroke-miterlimit:10;}
</style>
<g>
	<g>
		<g>
			<path class="st20" d="M62.3,148.5l-21.9-41.1H26.2v41.1H0.5V34.4h41.1c24.2,0,43.9,8.4,43.9,35.5c0,16.8-8,27.5-20.3,32.9
				l25.9,45.7H62.3z M26.2,86.9h13.3c13.5,0,20.8-5.8,20.8-17S53,54.9,39.5,54.9H26.2V86.9z"/>
			<path class="st20" d="M94.8,35.4c0-7.9,6.3-13.3,14.9-13.3c8.8,0,14.9,5.4,14.9,13.3s-6.1,13.5-14.9,13.5
				C101.1,48.9,94.8,43.3,94.8,35.4z M96.9,61.7h25.7v86.8H96.9V61.7z"/>
			<path class="st20" d="M128.8,138.5l11.6-16.1c7.9,6,15,9.1,22.4,9.1c7.7,0,11-2.8,11-7.3c0-5.8-8.8-8.4-17.7-11.9
				c-10.5-4-22.9-11.2-22.9-25.6c0-16.1,13.1-27.1,33.3-27.1c13.3,0,23.1,5.4,30.6,11L185.5,86c-6.3-4.5-12.2-7.3-18.4-7.3
				c-6.7,0-9.8,2.5-9.8,6.8c0,5.6,8.1,7.7,17,11c11,4,23.5,10.1,23.5,26.1c0,15.8-12.4,28-35.7,28
				C150.6,150.6,137.5,145.7,128.8,138.5z"/>
			<path class="st20" d="M205.2,25.8h25v70.4h0.7l27.5-34.5h28L256,97.4l32.7,51.1h-27.8l-19.6-33.8l-11,12.4v21.4h-25V25.8z"/>
		</g>
		<g>
			<path class="st20" d="M0.5,0.5h4.7v16.9h8.3v4h-13V0.5z"/>
			<path class="st20" d="M15.3,13.4c0-5.3,3.7-8.3,7.7-8.3c4,0,7.7,3,7.7,8.3s-3.7,8.3-7.7,8.3C19,21.7,15.3,18.7,15.3,13.4z
				 M26,13.4c0-2.8-1-4.5-2.9-4.5c-2,0-2.9,1.8-2.9,4.5s1,4.5,2.9,4.5C25,17.9,26,16.2,26,13.4z"/>
			<path class="st20" d="M32.4,5.5h4.7l1.5,7.4c0.3,1.6,0.4,3.1,0.7,4.7h0.1c0.3-1.6,0.5-3.2,0.9-4.7l1.8-7.4h4.1l1.8,7.4
				c0.4,1.6,0.7,3.1,1,4.7h0.1c0.3-1.6,0.4-3.1,0.7-4.7l1.5-7.4h4.4l-3.8,15.9h-5.5L45,15c-0.3-1.5-0.6-2.9-0.9-4.6H44
				c-0.3,1.7-0.5,3.2-0.8,4.6l-1.4,6.3h-5.4L32.4,5.5z"/>
			<path class="st20" d="M57.4,13.4c0-5.2,3.7-8.3,7.5-8.3c4.5,0,6.8,3.3,6.8,7.6c0,0.8-0.1,1.7-0.2,2.1h-9.5c0.4,2.3,2,3.4,4.1,3.4
				c1.2,0,2.3-0.4,3.4-1.1l1.6,2.8c-1.6,1.1-3.7,1.8-5.6,1.8C60.9,21.7,57.4,18.7,57.4,13.4z M67.6,11.7c0-1.8-0.8-3-2.7-3
				c-1.5,0-2.8,1-3.1,3H67.6z"/>
			<path class="st20" d="M74.9,5.5h3.8l0.3,2.8h0.1c1.2-2.1,2.9-3.2,4.5-3.2c0.9,0,1.4,0.1,1.9,0.3l-0.8,4.1
				c-0.6-0.2-1.1-0.3-1.7-0.3c-1.2,0-2.7,0.8-3.5,2.9v9.2h-4.7V5.5z"/>
		</g>
	</g>
</g>
</svg>
