<?xml version="1.0" encoding="utf-8"?>
<!-- Generator: Adobe Illustrator 19.0.1, SVG Export Plug-In . SVG Version: 6.00 Build 0)  -->
<svg version="1.1" id="Layer_1" xmlns="http://www.w3.org/2000/svg" xmlns:xlink="http://www.w3.org/1999/xlink" x="0px" y="0px"
	 viewBox="0 0 86.1 87" style="enable-background:new 0 0 86.1 87;" xml:space="preserve">
<style type="text/css">
	.st0{fill-rule:evenodd;clip-rule:evenodd;fill:#FFFDE8;}
	.st1{fill:#189BA3;}
	.st2{fill:#4F3A4B;}
	.st3{fill:#E75152;}
	.st4{fill:#FFFDE8;}
	.st5{fill:none;stroke:#189BA3;stroke-width:2;stroke-miterlimit:10;}
	.st6{fill:none;stroke:#189BA3;stroke-width:3;stroke-miterlimit:10;}
	.st7{fill:none;stroke:#189BA3;stroke-width:4;stroke-miterlimit:10;}
	.st8{opacity:0.5;fill-rule:evenodd;clip-rule:evenodd;fill:#189BA3;}
	.st9{opacity:0.5;}
	.st10{fill-rule:evenodd;clip-rule:evenodd;fill:#189BA3;}
	.st11{fill:none;stroke:#FFFDE8;stroke-width:4;stroke-miterlimit:10;}
	.st12{fill-rule:evenodd;clip-rule:evenodd;fill:#025E68;}
	.st13{fill:#025E68;}
	.st14{clip-path:url(#SVGID_2_);}
	.st15{fill-rule:evenodd;clip-rule:evenodd;fill:#2F3938;}
	.st16{fill:#01FEAE;}
	.st17{fill:#FEFEFE;}
	.st18{fill-rule:evenodd;clip-rule:evenodd;fill:#26CF92;}
	.st19{fill:#D2BEB7;}
	.st20{fill:#2F3938;}
	.st21{fill:#26CF92;}
	.st22{fill:none;stroke:#2F3938;stroke-width:2;stroke-miterlimit:10;}
	.st23{fill-rule:evenodd;clip-rule:evenodd;fill:#D7D3D3;}
	.st24{fill-rule:evenodd;clip-rule:evenodd;fill:#D7D3D3;stroke:#01FEAE;stroke-width:14;stroke-miterlimit:10;}
	.st25{fill-rule:evenodd;clip-rule:evenodd;fill:#FEFEFE;}
	.st26{fill-rule:evenodd;clip-rule:evenodd;fill:#01FEAE;}
	.st27{fill-rule:evenodd;clip-rule:evenodd;fill:#998675;}
	.st28{fill-rule:evenodd;clip-rule:evenodd;fill:none;stroke:#D7D3D3;stroke-width:14;stroke-miterlimit:10;}
	.st29{fill-rule:evenodd;clip-rule:evenodd;fill:none;stroke:#26CF92;stroke-width:6;stroke-miterlimit:10;}
	.st30{fill-rule:evenodd;clip-rule:evenodd;fill:none;stroke:#26CF92;stroke-width:3;stroke-miterlimit:10;}
	.st31{fill-rule:evenodd;clip-rule:evenodd;fill:#FF1D25;}
	.st32{fill-rule:evenodd;clip-rule:evenodd;fill:none;stroke:#2F3938;stroke-width:3;stroke-miterlimit:10;}
	.st33{fill-rule:evenodd;clip-rule:evenodd;fill:#75A087;}
	.st34{fill:#FEFEFE;stroke:#2F3938;stroke-width:6;stroke-miterlimit:10;}
	.st35{fill-rule:evenodd;clip-rule:evenodd;fill:none;stroke:#2F3938;stroke-width:6;stroke-miterlimit:10;}
	.st36{fill-rule:evenodd;clip-rule:evenodd;fill:#FEFEFE;stroke:#2F3938;stroke-width:6;stroke-miterlimit:10;}
</style>
<g>
	<g>
		<g>
			
				<rect x="17.2" y="34.8" transform="matrix(-0.7665 -0.6423 0.6423 -0.7665 32.5618 84.4501)" class="st19" width="28.9" height="3.1"/>
		</g>
		<g>
			
				<rect x="45.8" y="13.2" transform="matrix(-0.9603 -0.2788 0.2788 -0.9603 84.4935 71.5818)" class="st19" width="3.1" height="33.1"/>
		</g>
		<g>
			
				<rect x="52.3" y="21.8" transform="matrix(-0.6424 -0.7664 0.7664 -0.6424 60.5491 100.8637)" class="st19" width="3.1" height="28.9"/>
		</g>
		<g>
			<path class="st19" d="M42.9,76.2L17,65V36.7c0-14.3,11.7-25.9,26-25.9s26,11.6,26,25.9V65L42.9,76.2z M20,63l22.4,9.9L65,63V36.7
				c0-12.6-9.9-22.8-22.5-22.8C30,13.9,20,24.1,20,36.7V63z"/>
		</g>
		<g>
			
				<rect x="21.5" y="28.2" transform="matrix(-0.2788 -0.9603 0.9603 -0.2788 20.1228 74.6765)" class="st19" width="33.1" height="3.1"/>
		</g>
		<g>
			<g>
				<path class="st19" d="M42.9,67.8c-0.1,0-0.2,0-0.3,0l-7.1-1.5c-0.2,0-0.4-0.1-0.6-0.3l-10.4-7.7C24.1,57.9,24,57.5,24,57V31.7
					c0-0.5,0-0.9,0.3-1.2l10.7-8.8c0.3-0.2,0.5-0.2,0.9-0.2H49c0.3,0,0.7,0,0.9,0.2l11.7,8.9c0.4,0.3,0.4,0.7,0.4,1.2v25.9
					c0,0.5-0.1,1-0.5,1.3L50.2,66c-0.1,0.1-0.3,0.2-0.4,0.2l-6.6,1.5C43.1,67.8,43,67.8,42.9,67.8z M36.6,63.2l6.3,1.4l5.8-1.4
					L59,56.7V32.5l-10.5-8h-12L27,32.5v23.7L36.6,63.2z"/>
			</g>
		</g>
		<path class="st19" d="M45.9,58.1c0.3-2,0.7-3.7,1.2-5.3l-3-8.2l-2.9,1.1l9.2,25.5l2.9-1.1l-4.9-13.5
			C47.6,57.2,46.7,57.7,45.9,58.1z"/>
		<g>
			<path class="st19" d="M49,48l-5.4-3.1l-1.5,2.7l5.7,3.3C48.2,49.8,48.6,48.9,49,48z"/>
			<path class="st19" d="M54.1,50.9c-0.5,0.9-1.2,1.7-1.8,2.5l13,7.5l1.5-2.7L54.1,50.9z"/>
		</g>
		<path class="st19" d="M57,38.3l-0.4-1.2l-1.2,0.5c-0.4,0.2-10.1,4.3-12.1,22.4l-0.2,2l1.9-0.7c0.4-0.1,8.7-3.2,12-10.4
			C58.6,47,58.7,42.8,57,38.3z M54.6,49.8c-2,4.3-6.2,7-8.7,8.3c1.8-11.3,6.9-15.9,9.2-17.5C56.1,43.9,55.9,47,54.6,49.8z"/>
		<path class="st19" d="M42.2,60c-2-18.1-11.7-22.2-12.1-22.4l-1.2-0.5l-0.4,1.2c-1.7,4.5-1.7,8.7,0.1,12.6
			c3.3,7.2,11.7,10.3,12,10.4l1.9,0.7L42.2,60z M30.8,49.8c-1.3-2.8-1.4-5.9-0.5-9.3c0.9,0.6,2.1,1.6,3.4,3.2c2,2.5,4.6,7,5.7,14.3
			C37,56.8,32.7,54.1,30.8,49.8z"/>
		<g>
			<path class="st19" d="M29.9,42.3l-11.6-1.7l-0.4,3l11.8,1.7C29.6,44.4,29.7,43.3,29.9,42.3z"/>
			<path class="st19" d="M32.8,42.7c0.3,0.3,0.6,0.7,0.9,1c0.5,0.7,1.1,1.5,1.7,2.4l7,1l0.4-3L32.8,42.7z"/>
		</g>
		<g>
			<path class="st19" d="M55.7,45.4l11.8-1.7l-0.4-3l-11.6,1.7C55.7,43.3,55.8,44.4,55.7,45.4z"/>
			<path class="st19" d="M52.6,42.7l-10,1.5l0.4,3l7-1C50.9,44.7,51.8,43.6,52.6,42.7z"/>
		</g>
		<g>
			<path class="st19" d="M37.6,50.9l5.8-3.3l-1.5-2.7L36.4,48C36.8,48.9,37.2,49.8,37.6,50.9z"/>
			<path class="st19" d="M31.4,50.9l-12.7,7.3l1.5,2.7l13-7.5C32.5,52.7,31.9,51.8,31.4,50.9z"/>
		</g>
		<path class="st19" d="M41.3,44.6l-3,8.3c0.5,1.6,0.9,3.3,1.2,5.2c-0.7-0.4-1.6-0.9-2.5-1.5L32,70l2.9,1.1l9.2-25.5L41.3,44.6z"/>
	</g>
</g>
</svg>
