<?xml version="1.0" encoding="utf-8"?>
<!-- Generator: Adobe Illustrator 19.0.1, SVG Export Plug-In . SVG Version: 6.00 Build 0)  -->
<svg version="1.1" id="Layer_1" xmlns="http://www.w3.org/2000/svg" xmlns:xlink="http://www.w3.org/1999/xlink" x="0px" y="0px"
	 viewBox="0 0 86.1 87" style="enable-background:new 0 0 86.1 87;" xml:space="preserve">
<style type="text/css">
	.st0{fill-rule:evenodd;clip-rule:evenodd;fill:#FFFDE8;}
	.st1{fill:#189BA3;}
	.st2{fill:#4F3A4B;}
	.st3{fill:#E75152;}
	.st4{fill:#FFFDE8;}
	.st5{fill:none;stroke:#189BA3;stroke-width:2;stroke-miterlimit:10;}
	.st6{fill:none;stroke:#189BA3;stroke-width:3;stroke-miterlimit:10;}
	.st7{fill:none;stroke:#189BA3;stroke-width:4;stroke-miterlimit:10;}
	.st8{opacity:0.5;fill-rule:evenodd;clip-rule:evenodd;fill:#189BA3;}
	.st9{opacity:0.5;}
	.st10{fill-rule:evenodd;clip-rule:evenodd;fill:#189BA3;}
	.st11{fill:none;stroke:#FFFDE8;stroke-width:4;stroke-miterlimit:10;}
	.st12{fill-rule:evenodd;clip-rule:evenodd;fill:#025E68;}
	.st13{fill:#025E68;}
	.st14{clip-path:url(#SVGID_2_);}
	.st15{fill-rule:evenodd;clip-rule:evenodd;fill:#2F3938;}
	.st16{fill:#01FEAE;}
	.st17{fill:#FEFEFE;}
	.st18{fill-rule:evenodd;clip-rule:evenodd;fill:#26CF92;}
	.st19{fill:#D2BEB7;}
	.st20{fill:#2F3938;}
	.st21{fill:#26CF92;}
	.st22{fill:none;stroke:#2F3938;stroke-width:2;stroke-miterlimit:10;}
	.st23{fill-rule:evenodd;clip-rule:evenodd;fill:#D7D3D3;}
	.st24{fill-rule:evenodd;clip-rule:evenodd;fill:#D7D3D3;stroke:#01FEAE;stroke-width:14;stroke-miterlimit:10;}
	.st25{fill-rule:evenodd;clip-rule:evenodd;fill:#FEFEFE;}
	.st26{fill-rule:evenodd;clip-rule:evenodd;fill:#01FEAE;}
	.st27{fill-rule:evenodd;clip-rule:evenodd;fill:#998675;}
	.st28{fill-rule:evenodd;clip-rule:evenodd;fill:none;stroke:#D7D3D3;stroke-width:14;stroke-miterlimit:10;}
	.st29{fill-rule:evenodd;clip-rule:evenodd;fill:none;stroke:#26CF92;stroke-width:6;stroke-miterlimit:10;}
	.st30{fill-rule:evenodd;clip-rule:evenodd;fill:none;stroke:#26CF92;stroke-width:3;stroke-miterlimit:10;}
	.st31{fill-rule:evenodd;clip-rule:evenodd;fill:#FF1D25;}
	.st32{fill-rule:evenodd;clip-rule:evenodd;fill:none;stroke:#2F3938;stroke-width:3;stroke-miterlimit:10;}
	.st33{fill-rule:evenodd;clip-rule:evenodd;fill:#75A087;}
	.st34{fill:#FEFEFE;stroke:#2F3938;stroke-width:6;stroke-miterlimit:10;}
	.st35{fill-rule:evenodd;clip-rule:evenodd;fill:none;stroke:#2F3938;stroke-width:6;stroke-miterlimit:10;}
	.st36{fill-rule:evenodd;clip-rule:evenodd;fill:#FEFEFE;stroke:#2F3938;stroke-width:6;stroke-miterlimit:10;}
</style>
<g>
	<g>
		<g>
			<path class="st19" d="M51,49.9L51,49.9c-3.2,0-5.4-3.1-5.4-3.2l-1-1.6h12.9l-1.2,1.6C54.7,48.8,52.9,49.9,51,49.9z M48.6,47.1
				c0.7,1,1.5,0.9,2.4,0.9l0,0c0.8,0,1.6,0.1,2.3-0.9H48.6z"/>
		</g>
		<g>
			<path class="st19" d="M35,49.9L35,49.9c-3.2,0-5.4-3.1-5.4-3.2l-1-1.6h12.9l-1.2,1.6C38.7,48.8,36.9,49.9,35,49.9z M32.6,47.1
				c0.7,1,1.5,0.9,2.4,0.9l0,0c0.8,0,1.6,0.1,2.3-0.9H32.6z"/>
		</g>
		<path class="st19" d="M64.2,20.5c-4.3-5-10.3-6-12.3-6.2C46.2,7.2,39,7.8,35.2,9c-4.7,1.5-7.4,4.8-10,8.5c-1.2,0.8-2.3,1.8-3.4,3
			c-4.1,4.6-5.6,11.3-4.7,19.9c0,0.1,0.2,0.2,0.2,0.2v26.9l25.9,11.2l26.1-11.2V39.4C69.2,31.3,68.1,25,64.2,20.5z M65.2,65.5
			l-22.6,9.9l-22.4-9.9V40.6l5.3-6.8c0.1-0.2,0.2-0.4,0.3-0.6c0-0.1,2.4-11.3,10.2-11.3c0.7,0,1.4,0.1,2.2,0.3
			c-0.6,2.5,2.2,4.5,3.1,5.1c0.3,0.2,1.3,0.9,1.1,1.4c-0.4,0.9-3,2-5.4,1.6c-2-0.4-3.1-1.6-3.1-3.7l-3.1,0.1c0.1,3.5,2.2,6,5.7,6.7
			c0.6,0.1,1.1,0.1,1.7,0.1c3.1,0,6.2-1.5,7.1-3.6c0.4-0.9,0.9-3.1-2.1-5.2c-1.5-1.1-1.8-1.7-1.9-1.8c0.4-0.5,2.2-1.1,3.9-1.2
			l0.7-0.1l0.9,0.2l1.3,0.2l1.2,0.3l1.2-0.4c1.1,0.1,2.2,0.5,3.2,1.1c4.6,2.9,6.2,10.1,6.2,10.2l-0.2,0.4l5.5,7.3V65.5z"/>
	</g>
</g>
</svg>
