<?xml version="1.0" encoding="utf-8"?>
<!-- Generator: Adobe Illustrator 19.0.1, SVG Export Plug-In . SVG Version: 6.00 Build 0)  -->
<svg version="1.1" id="Layer_1" xmlns="http://www.w3.org/2000/svg" xmlns:xlink="http://www.w3.org/1999/xlink" x="0px" y="0px"
	 viewBox="0 0 86.1 87" style="enable-background:new 0 0 86.1 87;" xml:space="preserve">
<style type="text/css">
	.st0{fill-rule:evenodd;clip-rule:evenodd;fill:#FFFDE8;}
	.st1{fill:#189BA3;}
	.st2{fill:#4F3A4B;}
	.st3{fill:#E75152;}
	.st4{fill:#FFFDE8;}
	.st5{fill:none;stroke:#189BA3;stroke-width:2;stroke-miterlimit:10;}
	.st6{fill:none;stroke:#189BA3;stroke-width:3;stroke-miterlimit:10;}
	.st7{fill:none;stroke:#189BA3;stroke-width:4;stroke-miterlimit:10;}
	.st8{opacity:0.5;fill-rule:evenodd;clip-rule:evenodd;fill:#189BA3;}
	.st9{opacity:0.5;}
	.st10{fill-rule:evenodd;clip-rule:evenodd;fill:#189BA3;}
	.st11{fill:none;stroke:#FFFDE8;stroke-width:4;stroke-miterlimit:10;}
	.st12{fill-rule:evenodd;clip-rule:evenodd;fill:#025E68;}
	.st13{fill:#025E68;}
	.st14{clip-path:url(#SVGID_2_);}
	.st15{fill-rule:evenodd;clip-rule:evenodd;fill:#2F3938;}
	.st16{fill:#01FEAE;}
	.st17{fill:#FEFEFE;}
	.st18{fill-rule:evenodd;clip-rule:evenodd;fill:#26CF92;}
	.st19{fill:#D2BEB7;}
	.st20{fill:#2F3938;}
	.st21{fill:#26CF92;}
	.st22{fill:none;stroke:#2F3938;stroke-width:2;stroke-miterlimit:10;}
	.st23{fill-rule:evenodd;clip-rule:evenodd;fill:#D7D3D3;}
	.st24{fill-rule:evenodd;clip-rule:evenodd;fill:#D7D3D3;stroke:#01FEAE;stroke-width:14;stroke-miterlimit:10;}
	.st25{fill-rule:evenodd;clip-rule:evenodd;fill:#FEFEFE;}
	.st26{fill-rule:evenodd;clip-rule:evenodd;fill:#01FEAE;}
	.st27{fill-rule:evenodd;clip-rule:evenodd;fill:#998675;}
	.st28{fill-rule:evenodd;clip-rule:evenodd;fill:none;stroke:#D7D3D3;stroke-width:14;stroke-miterlimit:10;}
	.st29{fill-rule:evenodd;clip-rule:evenodd;fill:none;stroke:#26CF92;stroke-width:6;stroke-miterlimit:10;}
	.st30{fill-rule:evenodd;clip-rule:evenodd;fill:none;stroke:#26CF92;stroke-width:3;stroke-miterlimit:10;}
	.st31{fill-rule:evenodd;clip-rule:evenodd;fill:#FF1D25;}
	.st32{fill-rule:evenodd;clip-rule:evenodd;fill:none;stroke:#2F3938;stroke-width:3;stroke-miterlimit:10;}
	.st33{fill-rule:evenodd;clip-rule:evenodd;fill:#75A087;}
	.st34{fill:#FEFEFE;stroke:#2F3938;stroke-width:6;stroke-miterlimit:10;}
	.st35{fill-rule:evenodd;clip-rule:evenodd;fill:none;stroke:#2F3938;stroke-width:6;stroke-miterlimit:10;}
	.st36{fill-rule:evenodd;clip-rule:evenodd;fill:#FEFEFE;stroke:#2F3938;stroke-width:6;stroke-miterlimit:10;}
</style>
<g>
	<g>
		<g>
			<path class="st19" d="M49.8,49L49.8,49c-3.2,0-5.4-3-5.4-3.1c-0.2-0.3-0.2-0.8-0.1-1.2c0.2-0.3,0.5-0.7,0.8-0.7h9.2
				c0.4,0,0.7,0.4,0.8,0.7c0.2,0.3,0.1,0.8-0.1,1.1C53.5,47.9,51.7,49,49.8,49z M47.4,46c0.7,1,1.9,1,2.9,1V47c0,0,1.1,0.1,1.9-0.9
				L47.4,46z"/>
		</g>
		<g>
			<path class="st19" d="M33.8,49L33.8,49c-3.2,0-5.4-3-5.4-3.1c-0.2-0.3-0.2-0.8-0.1-1.2c0.2-0.3,0.5-0.7,0.8-0.7h9.2
				c0.4,0,0.7,0.4,0.8,0.7c0.2,0.3,0.1,0.8-0.1,1.1C37.5,47.9,35.7,49,33.8,49z M31.4,46c0.7,1,1.9,1,2.9,1V47c0,0,1.1,0.1,1.8-0.9
				L31.4,46z"/>
		</g>
		<g>
			<path class="st19" d="M17.3,44.7L17.3,44.7C17.3,44.7,17.3,44.7,17.3,44.7z"/>
			<path class="st19" d="M85.4,15.7c-0.4-0.3-0.9-0.2-1.2,0.2c0,0.1-0.1,0.1-0.1,0.2c-0.5,0.4-2.3,1.1-3.9,1.5c2.5-3,5.7-8.6,5.6-10
				c0-0.4-0.3-0.8-0.7-0.9c-0.8-0.2-1.4,0.4-2.1,1.3c-3.2,3.7-5.1,4.6-9.2,6.6c-0.9,0.4-1.9,0.9-3,1.5c0,0-3.8,2.3-3.7,5.9
				c0.1,2.7-0.3,5.8-0.6,7.2c-4-7.9-12-13.4-21.3-14c0-0.7-0.7-1.1-1.5-1.1h-0.6c-0.8,0-1.5,0.4-1.5,1.1
				c-9.6,0.7-17.7,6.5-21.6,14.7c0-0.2-0.8-4.4-0.7-8s-3.7-5.9-3.7-5.9c-1.1-0.6-2.1-1.1-3-1.5c-4.1-2-6-2.9-9.2-6.6
				C2.5,7.1,1.8,6.5,1.1,6.7C0.7,6.8,0.4,7.2,0.4,7.6c-0.1,1.4,3,7,5.6,10c-1.6-0.5-3.4-1.1-3.9-1.5C2,16,1.9,16,1.9,15.9
				c-0.3-0.4-0.8-0.5-1.2-0.2c-0.4,0.3-0.5,0.8-0.3,1.2c0,0.1,0.1,0.1,0.1,0.2c0.8,1.1,3.5,4.4,6.1,6.8c-1.6-0.3-3.3-0.8-4.2-1.3
				c-0.4-0.2-0.9-0.1-1.2,0.2c-0.3,0.4-0.2,0.9,0.1,1.2c0.2,0.2,3.4,3.2,6.7,5.6c-1.6-0.2-3.4-0.6-4.8-1.3c-0.4-0.2-0.9,0-1.2,0.4
				c-0.2,0.4-0.2,0.9,0.2,1.2C3,30.7,6,33,8.6,34.8C6.8,34.5,4.9,34,4,33.4c-0.4-0.2-0.9-0.1-1.2,0.2c-0.3,0.4-0.2,0.9,0.1,1.2
				c0.2,0.2,3.4,3.2,6.7,5.6c-1.6-0.2-3.4-0.6-4.8-1.3c-0.4-0.2-0.8-0.1-1.1,0.3c-0.3,0.3-0.3,0.8,0,1.1c0.2,0.3,5.8,7,10.6,7
				c0.1,0,1.6,0.1,3.6,2.7v18.8l25.4,11.2l25.6-11.2V50l-0.5,0.3c2-2.5,3.6-2.7,3.6-2.7c4.7,0,10.3-6.8,10.6-7
				c0.3-0.3,0.3-0.8,0-1.1c-0.3-0.3-0.7-0.4-1.1-0.3c-1.5,0.6-3.3,1-4.8,1.3c3.3-2.4,6.5-5.4,6.7-5.6c0.3-0.3,0.4-0.8,0.1-1.2
				c-0.3-0.4-0.8-0.5-1.2-0.2c-1,0.6-2.8,1-4.6,1.4c2.6-1.8,5.5-4.2,6.4-4.8c0.4-0.3,0.4-0.8,0.2-1.2c-0.2-0.4-0.7-0.5-1.2-0.4
				c-1.4,0.6-3.3,1-4.8,1.3c3.3-2.4,6.5-5.4,6.7-5.6c0.3-0.3,0.4-0.8,0.1-1.2c-0.3-0.4-0.8-0.5-1.2-0.2c-0.9,0.5-2.5,1-4.2,1.3
				c2.6-2.4,5.2-5.7,6.1-6.8c0.1-0.1,0.1-0.1,0.1-0.2C86,16.5,85.8,16,85.4,15.7z M16.4,44.5c0.2,0.1,0.6,0.2,0.8,0.2
				c0,0,0.1,0,0.6,0v3.1c-1-0.5-1.7-0.9-2.6-1.2c-2.2-0.8-1.1-0.8-1.2-0.8c-2.1,0-4.8-2-6.7-3.9c2.9,0.6,5.5,0.7,5.7,0.7
				c0.4,0,0.8-0.3,0.9-0.7s-0.1-0.8-0.4-1.1c-1.9-1.1-4.2-2.9-6.1-4.5c2.3,0.5,4.4,0.8,4.6,0.8c0.3,0,0.7-0.1,0.9-0.4l0.3-0.4
				c0.2-0.3,0.2-0.6,0.1-0.9c-0.1-0.3-0.4-0.5-0.7-0.6c-0.8-0.2-3.2-1.8-5.6-3.7c2.4,0.4,4.4,0.5,4.5,0.5c0.4,0,0.8-0.3,0.9-0.7
				c0.1-0.4-0.1-0.8-0.4-1.1c-1.9-1.1-4.2-2.9-6.1-4.5c2.3,0.5,4.5,0.8,4.6,0.8c0.5,0.1,1-0.3,1-0.8c0.1-0.5-0.3-1-0.8-1
				c-1.1-0.2-3.8-2.8-6.2-5.5c1.9,0.6,3.8,1,4.4,0.9c0.5-0.1,0.8-0.5,0.9-0.8c0.1-0.8-0.6-1.2-1-1.4c-1.2-0.6-3.3-3.8-4.8-6.4
				c2.4,2.2,4.4,3.2,7.7,4.8c0.9,0.4,1.9,0.9,3,1.5c0,0,2,1.4,2.2,3.8s1,13.1,1.2,13.6c-0.3,1.3-0.5,2.7-0.6,4.1
				c-0.1,0.1-0.3,0.1-0.4,0.2c-0.4,0.2-0.6,0.5-0.7,0.9l-0.4,3C15.8,43.8,16,44.2,16.4,44.5z M65.8,67.1L43.2,77l-22.4-9.9V43.3
				c4-1.7,11.8-4.4,22.7-4.4c7.5,0,15.3,1.3,22.3,3.9V67.1z M43.4,36.4c-10.5,0-18.5,2.4-23,4.2c0,0,0-0.1,0-0.1
				c7.1-3,14.8-4.6,22.9-4.6c10.5,0,19,2.6,22.7,4c0,0.1,0,0.1,0,0.2C58.5,37.6,50.9,36.4,43.4,36.4z M75.3,24.6
				c-0.5,0.1-0.9,0.5-0.8,1c0.1,0.5,0.5,0.9,1,0.8c0.2,0,2.3-0.3,4.6-0.8c-1.9,1.6-4.2,3.4-6.1,4.5c-0.4,0.2-0.5,0.6-0.4,1.1
				c0.1,0.4,0.5,0.7,0.9,0.7c0.1,0,2.1-0.1,4.5-0.5c-2.4,1.8-4.8,3.5-5.6,3.7c-0.3,0.1-0.6,0.3-0.7,0.6c-0.1,0.3-0.1,0.6,0.1,0.9
				l0.3,0.4c0.2,0.3,0.5,0.4,0.9,0.4c0.2,0,2.3-0.3,4.6-0.8c-1.9,1.6-4.2,3.4-6.1,4.5c-0.4,0.2-0.6,0.6-0.4,1.1s0.5,0.7,0.9,0.7
				c0.2,0,2.9-0.1,5.7-0.7c-1.9,1.9-4.6,3.9-6.7,3.9c-0.1,0,1,0.1-1.2,0.8c-0.7,0.3-1.3,0.6-2,0.9v-3.7c1-0.1,1.2-0.7,1.2-1.4
				c0-0.1,0.1-0.4,0-0.5l-0.4-2.7c-0.1-0.4-0.3-0.7-0.7-0.9c-0.1-1.1-0.3-2.2-0.5-3.3c0-0.1,0.1-0.2,0-0.3l0.7-13.3
				c0.2-2.4,2.2-3.8,2.2-3.8c1.1-0.6,2.1-1,3-1.5c3.3-1.6,5.3-2.6,7.7-4.8c-1.5,2.6-3.6,5.8-4.8,6.4c-0.4,0.2-1.2,0.6-1,1.4
				c0.1,0.3,0.3,0.7,0.9,0.8c0.5,0.1,2.5-0.3,4.4-0.9C79.1,21.9,76.5,24.5,75.3,24.6z"/>
			<path class="st19" d="M17.3,44.7C17.3,44.7,17.3,44.7,17.3,44.7C17.2,44.7,17.3,44.7,17.3,44.7z"/>
		</g>
	</g>
</g>
</svg>
